<?xml version="1.0" encoding="UTF-8"?>
<svg width="40px" height="40px" viewBox="0 0 40 40" version="1.1" xmlns="http://www.w3.org/2000/svg" xmlns:xlink="http://www.w3.org/1999/xlink">
    <!-- Generator: Sketch 42 (36781) - http://www.bohemiancoding.com/sketch -->
    <title>Combined Shape</title>
    <desc>Created with Sketch.</desc>
    <defs></defs>
    <g id="Page-1" stroke="none" stroke-width="1" fill="none" fill-rule="evenodd">
        <g id="Group-3" fill="#FFFFFF">
            <g id="arrow-button-left" transform="translate(20.660156, 20.579777) rotate(-90.000000) translate(-20.660156, -20.579777) translate(0.660156, 0.579777)">
                <path d="M20.1787691,39.157946 C9.44046677,39.157946 0.735352745,30.452832 0.735352745,19.7145296 C0.735352745,8.97622726 9.44046677,0.271113242 20.1787691,0.271113242 C30.9170715,0.271113242 39.6221855,8.97622726 39.6221855,19.7145296 C39.6221855,30.452832 30.9170715,39.157946 20.1787691,39.157946 Z M23.3791309,26.6105409 L16.4831675,19.7145776 L23.3791384,12.8185108 C23.9649207,12.2327202 23.964914,11.2829727 23.3791234,10.6971904 C22.7933328,10.1114081 21.8435853,10.1114149 21.257803,10.6972054 L13.379884,18.5752358 C12.750356,19.203152 12.750356,20.2244068 13.3798915,20.8539423 L21.2578105,28.7318613 C21.843597,29.3176477 22.7933444,29.3176477 23.3791309,28.7318613 C23.9649173,28.1460748 23.9649173,27.1963274 23.3791309,26.6105409 Z" id="Combined-Shape"></path>
            </g>
        </g>
    </g>
</svg>